<?xml version="1.0" standalone="no"?>
<!DOCTYPE svg PUBLIC "-//W3C//DTD SVG 20010904//EN"
 "http://www.w3.org/TR/2001/REC-SVG-20010904/DTD/svg10.dtd">
<svg version="1.0" xmlns="http://www.w3.org/2000/svg"
 width="260.000000pt" height="260.000000pt" viewBox="0 0 260.000000 260.000000"
 preserveAspectRatio="xMidYMid meet">
<metadata>
Created by potrace 1.14, written by Peter Selinger 2001-2017
</metadata>
<g transform="translate(0.000000,260.000000) scale(0.100000,-0.100000)"
fill="#000000" stroke="none">
<path d="M1213 2496 c-22 -6 -53 -23 -67 -39 -14 -15 -29 -27 -34 -27 -12 0
-64 -110 -87 -181 -20 -65 -17 -119 13 -199 35 -93 71 -154 132 -215 11 -12
20 -25 20 -31 0 -6 12 -20 26 -33 21 -18 24 -27 19 -54 -4 -18 -13 -38 -21
-46 -11 -12 -16 -10 -31 18 -17 30 -21 32 -61 28 -43 -5 -80 -35 -145 -119
-29 -38 -77 -141 -77 -168 0 -14 -9 -45 -20 -69 -13 -28 -23 -77 -27 -135 -3
-50 -12 -103 -20 -119 -7 -15 -18 -59 -23 -99 -5 -45 -16 -81 -29 -99 -12 -16
-21 -36 -21 -46 0 -24 -47 -103 -89 -148 -29 -32 -37 -36 -69 -31 -94 13 -201
17 -288 11 l-96 -8 -43 -43 c-33 -33 -45 -53 -50 -86 -8 -55 6 -119 36 -158
54 -70 171 -180 192 -180 6 0 27 -11 46 -25 20 -13 52 -27 71 -30 19 -3 51
-17 71 -31 38 -26 93 -34 365 -53 104 -8 143 -7 190 4 69 17 302 19 413 5 168
-22 501 3 550 41 13 10 49 26 82 35 32 9 66 25 75 35 9 11 25 19 36 19 10 0
28 12 41 26 12 14 34 32 50 40 15 8 27 19 27 25 0 6 11 20 25 31 14 11 25 25
25 33 0 7 9 19 21 26 33 23 49 101 33 169 -7 30 -17 56 -23 58 -11 4 -21 14
-48 45 -16 20 -154 30 -297 21 -66 -4 -128 -7 -136 -5 -31 5 -76 65 -115 151
-9 19 -24 51 -34 70 -11 19 -22 59 -26 89 -4 30 -16 79 -26 110 -12 32 -19 82
-19 123 0 46 -7 85 -19 116 -11 26 -25 71 -30 101 -6 29 -20 65 -31 78 -11 14
-20 30 -20 35 0 11 -32 52 -81 106 -42 45 -99 66 -128 46 -12 -8 -21 -21 -21
-28 0 -8 -6 -19 -14 -25 -20 -17 -36 14 -36 68 0 29 5 41 18 46 9 3 26 19 37
35 11 16 43 63 72 104 28 41 54 90 58 108 4 18 16 51 26 72 24 51 24 100 -1
155 -11 24 -20 53 -20 66 0 31 -109 165 -135 165 -11 1 -31 7 -45 15 -29 17
-107 17 -167 1z m168 -149 c21 -19 50 -51 65 -72 23 -34 26 -49 25 -110 -1
-66 -4 -73 -53 -147 -28 -42 -57 -79 -65 -82 -7 -3 -13 -11 -13 -18 0 -7 -9
-19 -21 -26 -25 -16 -41 -4 -86 61 -15 23 -34 48 -40 55 -7 7 -13 19 -13 26 0
7 -11 26 -25 42 -21 25 -25 39 -25 96 0 62 2 69 39 116 56 71 87 92 133 92 31
0 49 -8 79 -33z m-201 -762 c11 -13 9 -21 -8 -45 -12 -16 -26 -47 -31 -70 -5
-23 -16 -49 -24 -58 -8 -9 -18 -37 -22 -62 -4 -25 -13 -57 -21 -72 -7 -14 -18
-59 -24 -100 -6 -40 -16 -98 -22 -128 -28 -141 -28 -179 -1 -285 2 -11 8 -59
13 -107 5 -61 14 -98 30 -122 26 -44 23 -80 -7 -84 -14 -2 -27 5 -38 22 -10
15 -34 31 -56 37 -21 7 -45 22 -54 35 -8 12 -28 25 -45 29 -37 8 -70 48 -70
86 0 16 18 54 41 89 28 43 43 78 48 114 4 28 15 63 25 78 10 16 21 60 26 113
5 47 14 101 20 119 6 19 17 69 24 112 20 113 61 206 118 265 51 53 59 57 78
34z m319 -27 c23 -22 41 -47 41 -55 0 -7 4 -13 10 -13 5 0 14 -17 19 -37 6
-21 18 -48 27 -61 10 -14 18 -52 21 -100 3 -46 12 -92 23 -114 11 -20 22 -72
26 -115 4 -43 15 -96 24 -118 10 -22 21 -57 25 -79 9 -45 52 -135 78 -160 39
-39 7 -114 -57 -136 -19 -6 -40 -18 -47 -26 -7 -8 -28 -22 -47 -30 -19 -8 -46
-26 -60 -39 -51 -51 -81 -2 -44 72 11 22 22 72 26 118 4 44 13 105 21 136 18
68 18 146 0 219 -8 30 -21 97 -30 149 -8 52 -20 100 -24 105 -5 6 -12 34 -16
61 -4 28 -15 62 -26 77 -10 15 -23 45 -28 68 -5 23 -17 50 -26 60 -19 21 -12
60 10 60 7 0 32 -19 54 -42z m-166 -68 c5 -25 16 -53 24 -62 9 -10 21 -41 29
-70 7 -29 20 -71 28 -93 8 -22 15 -56 16 -75 0 -19 10 -51 22 -70 19 -32 22
-51 25 -209 2 -154 1 -178 -17 -217 -10 -25 -24 -70 -30 -102 -5 -31 -19 -69
-30 -84 -11 -15 -20 -31 -20 -36 0 -13 -67 -72 -82 -72 -15 0 -78 69 -78 85 0
7 -9 20 -20 30 -12 11 -20 31 -20 51 0 19 -11 63 -25 100 -23 61 -25 80 -25
234 0 158 1 171 25 222 14 29 25 71 25 93 0 23 9 58 20 80 11 22 20 54 20 71
0 20 10 44 25 62 14 17 25 43 25 59 0 67 50 69 63 3z m-858 -924 c26 -11 36
-23 44 -54 16 -59 47 -68 113 -33 l53 27 65 -30 c36 -16 67 -34 69 -38 1 -5
26 -19 55 -32 28 -13 60 -33 70 -45 11 -11 24 -21 31 -21 6 0 22 -11 35 -25
13 -14 29 -25 37 -25 7 0 20 -11 29 -25 13 -20 14 -28 4 -40 -10 -12 -40 -13
-176 -9 -186 6 -190 6 -233 29 -17 9 -57 21 -88 26 -34 6 -69 21 -86 35 -16
13 -37 24 -47 24 -11 0 -35 14 -53 30 -19 17 -39 30 -45 30 -6 0 -21 12 -34
28 -13 15 -33 32 -44 38 -28 16 -28 48 -1 80 19 22 36 30 78 35 85 10 88 10
124 -5z m1837 -17 c46 -23 62 -67 32 -83 -10 -6 -30 -23 -44 -37 -14 -14 -39
-33 -55 -41 -17 -9 -39 -25 -49 -37 -11 -12 -29 -21 -40 -21 -12 0 -31 -11
-43 -24 -23 -23 -62 -36 -113 -36 -15 0 -40 -10 -55 -22 -32 -25 -175 -41
-328 -36 l-92 3 -3 28 c-3 23 2 30 30 41 18 8 44 26 57 40 14 14 30 26 37 26
6 0 18 7 25 17 8 9 33 24 55 35 23 10 47 24 53 32 6 7 40 28 76 45 55 27 67
30 85 19 11 -7 20 -16 20 -21 0 -4 4 -6 9 -2 5 3 12 1 16 -5 20 -33 105 7 105
49 0 57 134 75 222 30z"/>
</g>
</svg>
